<svg width="110" height="113" viewBox="0 0 110 113" fill="none" xmlns="http://www.w3.org/2000/svg">
<path d="M77.9748 63.7176C78.4392 63.676 78.9459 63.6448 78.9459 63.6448L79.8959 63.5928H92.2881V0H55.6076V2.37147H89.8815V61.2317H85.3953V53.2436C85.7226 52.1203 85.997 50.9657 86.1976 49.8216C86.5353 47.9286 87.422 42.9048 85.902 37.0906C84.5087 31.734 81.6587 28.2184 79.5898 25.6493C76.9298 22.3625 74.2276 20.1367 70.4909 17.0683L70.1637 16.8083C68.1476 15.1545 66.3531 13.792 64.2737 12.2214C63.4187 11.5765 61.6453 10.2452 59.4076 8.61217C58.0565 7.63446 56.6842 6.65675 55.3331 5.69984L54.647 5.22139L53.9609 5.69984C52.5781 6.66715 51.2059 7.65526 49.8865 8.61217C48.2292 9.81871 46.5403 11.0668 45.0098 12.2214C42.9198 13.8024 41.1253 15.1649 39.1198 16.8083L38.8031 17.0683C35.0559 20.1367 32.3537 22.3625 29.6937 25.6493C27.6142 28.2184 24.7748 31.734 23.3815 37.0906C21.8615 42.9048 22.7481 47.9286 23.0859 49.8216C23.2865 50.9761 23.5609 52.1307 23.8881 53.254V53.2852V61.2525H19.3492V2.37147H53.3909V0H16.9531V63.6032H29.1765C30.1159 63.6136 31.0553 63.6864 31.9842 63.832C32.9131 63.9672 34.8237 64.3312 37.0931 65.2361C38.4865 65.7874 40.8192 66.7235 43.2259 68.7829C44.6826 70.0207 45.9387 71.4872 46.9731 73.1306L47.4692 73.9523H61.7509L62.1731 73.193C66.8915 64.7785 77.8692 63.728 77.9748 63.7176ZM75.4203 38.9732C74.4915 35.3952 72.602 33.0653 71.2298 31.3699C69.467 29.1961 67.6937 27.7295 65.2342 25.7221L65.0231 25.5453C63.7142 24.4636 62.532 23.5795 61.1703 22.5393C60.6215 22.1233 59.4709 21.26 57.9931 20.1887C57.1381 19.575 56.2515 18.9301 55.3331 18.2853L54.647 17.8068L53.9609 18.2853C53.0742 18.8989 52.1876 19.5438 51.3009 20.1887C50.1926 20.9896 49.0948 21.8113 48.1237 22.5393C46.762 23.5691 45.5903 24.4532 44.2709 25.5453L44.0703 25.7117C41.6109 27.7295 39.8376 29.1857 38.0748 31.3699C36.7026 33.0757 34.8131 35.4056 33.8842 38.9732C32.8709 42.8424 33.4831 46.306 33.6837 47.4397C33.8209 48.1886 33.9898 48.9375 34.2009 49.6656V49.6968L34.1903 51.1426H31.4142L31.3615 50.9761C31.0976 50.0816 30.8759 49.1559 30.7176 48.2406C30.4642 46.8053 29.7887 42.9776 30.9287 38.6195C31.9737 34.6359 34.0637 32.046 35.742 29.9658C37.8109 27.4071 39.9748 25.6389 42.962 23.1738L43.2153 22.9658C44.8303 21.6448 46.287 20.5319 47.9759 19.263L48.0181 19.2318C48.8731 18.5869 50.2665 17.5468 52.0081 16.2778C52.8631 15.6642 53.7287 15.0297 54.6048 14.416L54.6681 14.3744L54.7315 14.416C55.5865 15.0193 56.452 15.6434 57.3176 16.2778C58.6792 17.2659 60.0937 18.3165 61.3076 19.2318C63.0176 20.5319 64.4848 21.6344 66.1103 22.9658L66.3742 23.1738C69.372 25.6285 71.5253 27.4071 73.5942 29.9554C75.2831 32.046 77.3731 34.6359 78.4076 38.6091C79.5476 42.9776 78.872 46.7949 78.6187 48.2302C78.4603 49.1559 78.2387 50.0712 77.9748 50.9657L77.922 51.1218H75.1353V49.6448H75.1459V49.6032C75.3465 48.8855 75.5153 48.1574 75.642 47.4397C75.8215 46.306 76.4337 42.8528 75.4203 38.9732ZM70.1531 40.2005C69.4565 37.517 68.042 35.78 67.0181 34.5111C65.7092 32.8885 64.4003 31.8068 62.5742 30.3194L62.4265 30.1946C61.4553 29.4041 60.5898 28.7488 59.587 27.9896C59.1753 27.6775 58.3309 27.043 57.2437 26.263C56.6103 25.8053 55.9453 25.3269 55.2909 24.8692L54.6048 24.3907L53.9398 24.8588C53.2853 25.3165 52.6309 25.7845 51.987 26.2526C50.9526 27.0014 50.1398 27.6047 49.6437 27.9896L49.6015 28.0208C48.6092 28.7696 47.7648 29.4145 46.8148 30.1946L46.667 30.3194C44.8515 31.8172 43.532 32.8885 42.2231 34.5111C41.1992 35.78 39.7953 37.5274 39.0881 40.2005C38.3281 43.1129 38.782 45.6923 38.9298 46.5452C38.9403 46.5868 38.9615 46.6701 38.9931 46.7741C39.0248 46.8885 39.0776 47.0341 39.1198 47.2005L39.1515 47.3357H36.0481L36.0165 47.1693C36.0059 47.1277 35.9953 47.0965 35.9953 47.0549C35.7948 45.9316 35.267 42.9568 36.1537 39.5557C36.9665 36.4561 38.592 34.4383 39.9115 32.8157C41.5159 30.8291 43.2153 29.4353 45.5692 27.5007L45.7803 27.3239C47.0681 26.263 48.2187 25.3893 49.5592 24.3803C50.5409 23.6315 51.6281 22.8306 52.7048 22.0505C53.3276 21.5928 53.9609 21.1456 54.5942 20.6983L54.6576 20.6567L54.7209 20.6983C55.3542 21.1456 55.9876 21.5928 56.5998 22.0505C58.067 23.1218 59.1965 23.9643 59.7453 24.3803C61.0859 25.3997 62.247 26.2734 63.5242 27.3239L63.7248 27.4903C66.0787 29.4249 67.7781 30.8187 69.3826 32.8053C70.6915 34.4279 72.3276 36.4457 73.1404 39.5453C74.027 42.936 73.4992 45.9212 73.2987 47.0341C73.2881 47.0757 73.2881 47.1069 73.2776 47.1485L73.2459 47.3149H70.132L70.1531 47.1901C70.1953 46.9821 70.2376 46.8157 70.2692 46.7013C70.2903 46.6285 70.3009 46.566 70.3115 46.5348C70.4592 45.6923 70.9131 43.1129 70.1531 40.2005ZM54.4992 47.0965C56.5153 47.0965 58.162 45.4843 58.162 43.4873C58.162 41.9479 57.1698 40.575 55.692 40.0757L55.6181 40.0549V27.9479L55.8503 28.1248C56.927 28.9049 57.7715 29.5393 58.1726 29.841C59.1542 30.5898 59.9987 31.2243 60.9276 31.9836L61.0753 32.1084C62.7853 33.5126 64.0203 34.5215 65.1815 35.9569C66.1737 37.1842 67.3031 38.5779 67.8731 40.783C68.5065 43.2065 68.1265 45.3387 67.9892 46.15C67.8942 46.6701 67.7781 47.1901 67.6303 47.679L67.5881 47.8246L67.5353 47.8454C62.7748 49.364 58.447 51.7666 54.6681 54.991L54.5942 55.0534L54.5203 54.991C50.8681 51.881 46.7092 49.5304 42.1492 48.0014C42.0015 47.9494 41.8642 47.9078 41.7165 47.8662L41.6637 47.8454L41.6215 47.6894C41.4737 47.1901 41.347 46.6701 41.2626 46.1604C41.1253 45.3595 40.7453 43.2273 41.3787 40.7934C41.9592 38.5883 43.0781 37.1946 44.0703 35.9673C45.2315 34.5319 46.4665 33.523 48.1765 32.1188L48.3348 31.994C49.2637 31.2347 50.1187 30.5898 51.1003 29.841C51.5648 29.4873 52.3142 28.9257 53.2431 28.2496L53.412 28.1248V40.0653L53.3381 40.0861C51.8603 40.5854 50.8576 41.9583 50.8576 43.4977C50.847 45.4739 52.4831 47.0965 54.4992 47.0965ZM31.3931 53.4516H34.0426C34.8342 53.6492 35.6153 53.8573 36.3753 54.0861C37.5576 54.4397 39.8481 55.1574 41.8009 55.9895C44.3131 57.0712 46.8253 58.5794 49.2531 60.4828L49.3376 60.5452L49.2742 60.6284C48.9892 61.0029 48.6937 61.3981 48.4087 61.8038C48.1237 62.2094 47.8492 62.6151 47.5959 63.0103L47.5326 63.1143L47.4376 63.0415C45.5165 61.5749 43.2892 60.2852 40.8298 59.1931C36.8715 57.4457 33.272 56.676 31.467 56.3743L31.372 56.3535L31.3931 53.4516ZM36.8609 51.8186L36.5442 51.7562L36.502 49.6552H39.1937C42.107 50.3729 44.8726 51.4546 47.4587 52.89C49.3376 53.9301 51.1215 55.1678 52.7576 56.5616L52.842 56.6344L52.7576 56.7176C52.4303 57.0296 52.1137 57.3625 51.8076 57.6849C51.5015 58.0073 51.1953 58.3506 50.8998 58.6834L50.8259 58.7666L50.7415 58.6938C46.6459 55.2718 41.7165 52.8276 36.8609 51.8186ZM52.6415 60.2436C53.2431 59.5675 53.8659 58.9018 54.5098 58.2778L54.5837 58.205L54.6576 58.2778C55.3226 58.9226 55.9559 59.5883 56.5365 60.254L56.5998 60.3268L56.5259 60.3996C55.882 61.0237 55.2592 61.6789 54.6681 62.3446L54.5837 62.4382L54.4992 62.3446C53.9081 61.6685 53.2748 61.0133 52.6309 60.3892L52.557 60.3164L52.6415 60.2436ZM56.4098 56.7072L56.3253 56.624L56.4203 56.5512C58.1303 55.1158 59.9776 53.8469 61.9303 52.7651C62.3209 52.5467 62.6903 52.3595 63.0492 52.1723L63.102 52.1411C63.6826 51.8498 64.7803 51.2986 66.0998 50.7993C67.3665 50.3209 68.6965 49.9256 70.0581 49.6448H72.7498V51.725L72.6653 51.7458C67.7042 52.7235 62.6692 55.1782 58.4787 58.6626L58.3626 58.7666L58.2887 58.6834C57.687 58.0073 57.0642 57.3521 56.4098 56.7072ZM59.9142 60.5036C61.8459 58.881 63.9465 57.5081 66.1631 56.416C67.092 55.9583 69.6254 54.8038 73.1404 54.0341C74.2487 53.7949 75.3781 53.5972 76.497 53.462H77.8904V56.3223H77.7848C76.402 56.3847 75.0298 56.5512 73.7103 56.8112C69.6781 57.6017 65.7515 59.4323 62.3631 62.0846C62.1203 62.2822 61.8565 62.4902 61.5398 62.7607L61.4448 62.8439L61.3815 62.7399C60.9065 62.0326 60.4103 61.3253 59.9037 60.6596L59.8403 60.5764L59.9142 60.5036ZM83.0309 61.2837L82.9148 61.2733C81.7642 61.2005 80.5926 61.2005 79.4526 61.2733C77.922 61.3669 76.687 61.5645 75.9165 61.7101C75.0403 61.8766 73.2565 62.2822 71.1559 63.0935C68.4431 64.144 66.0681 65.5586 64.0942 67.2852L63.9887 67.3788L63.9253 67.254C63.5559 66.4739 63.1548 65.6938 62.7326 64.9449L62.6903 64.8721L62.7537 64.8201C66.0998 61.887 70.0476 59.9003 74.1642 59.0891C75.3676 58.8498 76.6026 58.7042 77.8587 58.6522L80.2654 58.5378L80.3709 58.517H83.0309V61.2837ZM25.4081 49.416C25.102 47.6582 24.2787 42.988 25.672 37.6626C26.9492 32.7845 29.4931 29.6329 31.5515 27.0951C34.0637 23.9851 36.6815 21.8321 40.3231 18.8469L40.6398 18.5869C42.6031 16.9643 44.387 15.6226 46.4559 14.052C47.9865 12.8975 49.6542 11.6597 51.2903 10.474C52.367 9.69389 53.4859 8.893 54.5942 8.11291L54.6576 8.07131L54.7209 8.11291C55.7659 8.8514 56.8742 9.65229 58.0142 10.474C60.0937 11.9821 61.7931 13.2511 62.8592 14.0624L62.8909 14.0832C64.9492 15.633 66.712 16.9851 68.6753 18.5869L68.992 18.8469C72.6337 21.8321 75.2515 23.9851 77.7637 27.0951C79.8115 29.6329 82.3659 32.7949 83.6431 37.6626C85.0365 42.9984 84.2131 47.6582 83.907 49.416C83.7065 50.5497 83.4426 51.673 83.1153 52.7651L83.0626 52.9212V56.1871H80.2865L80.2759 51.4546C80.5398 50.5289 80.7615 49.5824 80.9303 48.6359C81.2048 47.0653 81.9437 42.884 80.677 38.0371C79.5159 33.575 77.1515 30.6523 75.4203 28.5096C73.2142 25.7741 70.9765 23.9331 67.8731 21.3952L67.6092 21.1768C65.9415 19.8038 64.4531 18.6805 62.7326 17.3804C61.5292 16.4651 60.0937 15.4041 58.7109 14.3952C57.6026 13.5943 56.4731 12.783 55.3437 11.9926L54.6576 11.5141L53.9715 11.9926C52.8315 12.7934 51.702 13.5943 50.6042 14.3952C48.8731 15.6538 47.4587 16.7147 46.5826 17.3804C44.8515 18.6909 43.3631 19.8142 41.7059 21.1768L41.4526 21.3848C38.3492 23.9331 36.1115 25.7741 33.9053 28.5096C32.1848 30.6419 29.8203 33.5646 28.6487 38.0371C27.382 42.884 28.1209 47.0653 28.3953 48.6359C28.5642 49.5928 28.7859 50.5393 29.0498 51.4546V51.4858L29.0287 56.1871H26.2631V52.9212L26.2209 52.7651C25.8726 51.673 25.6087 50.5497 25.4081 49.416ZM46.287 65.2361C46.1076 65.5586 45.9387 65.881 45.7592 66.2243C45.5903 66.5571 45.4215 66.8899 45.2631 67.2332L45.1998 67.358L45.0942 67.2644C44.1548 66.4843 43.152 65.7666 42.1281 65.1321C42.107 65.1217 40.1226 63.8944 37.9481 63.0415C33.4937 61.2837 28.3531 61.1797 26.3581 61.2213H26.242V58.4962H28.997V58.5274C30.422 58.6106 31.8365 58.8082 33.2298 59.1099C34.8659 59.4635 36.0481 59.8691 36.7553 60.1188C37.6842 60.4412 39.5737 61.1589 41.8115 62.3446C43.342 63.1559 44.8303 64.0816 46.2448 65.1009L46.3187 65.1529L46.287 65.2361ZM50.1398 69.0222C49.7281 69.8335 49.3481 70.676 49.0209 71.5185L48.9998 71.5913H48.7887L48.757 71.5393C48.2292 70.7072 47.6381 69.9167 47.0259 69.2094L46.9837 69.1574L47.0153 69.095C47.3426 68.3357 47.712 67.5868 48.092 66.8691L48.1553 66.7443L48.2609 66.8483C48.9365 67.5036 49.5592 68.2005 50.1398 68.9182L50.182 68.9702L50.1398 69.0222ZM51.4065 66.7651L51.3115 66.6507C50.7309 65.9746 50.0976 65.3298 49.4326 64.7057L49.3692 64.6433L49.422 64.5705C49.9181 63.78 50.467 62.9999 51.0265 62.2406L51.1003 62.1366L51.1848 62.2198C51.8287 62.8647 52.462 63.5304 53.0426 64.2168L53.0953 64.2792L53.0426 64.3521C52.4831 65.0905 51.9659 65.8602 51.4909 66.6195L51.4065 66.7651ZM56.1987 68.835C55.6603 69.6774 55.1642 70.5615 54.7315 71.456L54.6365 71.6537L54.5415 71.456C54.077 70.5511 53.5598 69.667 52.9898 68.8246L52.9476 68.7725L52.9792 68.7101C53.4437 67.9092 53.9503 67.1084 54.4992 66.3387L54.5837 66.2139L54.6681 66.3387C55.217 67.1084 55.7342 67.9092 56.1987 68.7101L56.2303 68.7621L56.1987 68.835ZM57.7292 66.6819L57.6448 66.5467C57.1803 65.7978 56.6737 65.0697 56.1459 64.3521L56.0931 64.2792L56.1459 64.2168C56.737 63.5304 57.3598 62.8543 57.9931 62.2302L58.0776 62.147L58.1515 62.251C58.6792 62.9479 59.1753 63.6656 59.6398 64.3833L59.682 64.4561L59.6187 64.5185C58.9748 65.1737 58.3731 65.8602 57.8031 66.5675L57.7292 66.6819ZM60.4315 71.5393L60.3998 71.5913H60.1887L60.1676 71.5185C59.8298 70.6552 59.4392 69.7919 59.0276 68.9806L58.9959 68.9182L59.0381 68.8661C59.587 68.1173 60.1992 67.3788 60.8537 66.6715L60.9592 66.5571L61.0331 66.6923C61.4553 67.4828 61.8565 68.2941 62.2048 69.095L62.2365 69.1574L62.1942 69.2094C61.5503 69.9271 60.9592 70.7072 60.4315 71.5393Z" fill="#FFE6C3"/>
<path d="M109.229 89.4499H106.928V79.8496H104.859V91.4573H109.229V89.4499Z" fill="#FFE6C3"/>
<path d="M46.0215 79.8496V91.4573H50.402V89.4499H48.1009V79.8496H46.0215Z" fill="#FFE6C3"/>
<path d="M11.5898 106.789V108.796H24.0348V103.887H21.966V106.789H18.6515V103.179C18.6515 102.046 17.7015 101.13 16.5298 101.13H12.6771V103.138L16.5721 103.179V106.789H11.5898Z" fill="#FFE6C3"/>
<path d="M71.7567 83.792V91.1872C71.7567 92.3626 70.7751 92.841 69.5612 92.841H68.3262V94.8484H69.5612C71.8095 94.8484 73.6462 93.6107 73.7939 91.4681H81.3939V83.8024H79.3251V89.4502H73.8362V83.792H71.7567Z" fill="#FFE6C3"/>
<path d="M56.5904 106.789V105.312V97.1885H54.5215V105.312V108.796H58.8915V106.789H56.5904Z" fill="#FFE6C3"/>
<path d="M50.6258 105.312V106.789H46.6358L47.4908 105.312L48.5358 103.492C48.768 102.961 48.7047 102.358 48.3775 101.879C48.0925 101.463 47.6386 101.203 47.1425 101.141V101.11H41.5902V101.141C41.0941 101.203 40.6402 101.463 40.3552 101.879C40.028 102.358 39.9647 102.961 40.2075 103.523L41.2736 105.312L42.1497 106.789H38.0752V103.252C38.0752 102.087 37.1041 101.141 35.9008 101.141H30.9397V106.789H28.7969V97.2197H24.4902V99.2271H26.728V108.796H52.7052V97.1885H50.6363L50.6258 105.312ZM35.9958 106.789H33.0086V103.148H35.8902C35.943 103.148 35.9958 103.19 35.9958 103.252V106.789ZM44.398 106.737L43.5641 105.312L42.2975 103.128H46.4458L45.2108 105.312L44.398 106.737Z" fill="#FFE6C3"/>
<path d="M5.10889 108.796C7.92722 108.796 10.2178 106.581 10.2178 103.856V101.588H7.15667L7.17778 99.3832C7.17778 99.3 7.25167 99.2272 7.33611 99.2272H10.1861V97.2197H7.33611C6.10111 97.2197 5.10889 98.187 5.10889 99.3832L5.07722 103.596H8.13833V103.856C8.13833 105.478 6.77667 106.789 5.10889 106.789C3.44111 106.789 2.07944 105.468 2.07944 103.856V100.267H0V103.856C0 106.581 2.29056 108.796 5.10889 108.796Z" fill="#FFE6C3"/>
<path d="M96.6788 98.312C96.6788 97.7087 96.1721 97.2095 95.5494 97.2095C94.9266 97.2095 94.4199 97.6983 94.4199 98.312C94.4199 98.9257 94.9266 99.4041 95.5494 99.4041C96.1721 99.4041 96.6788 98.9153 96.6788 98.312Z" fill="#FFE6C3"/>
<path d="M99.6241 98.312C99.6241 97.7087 99.1175 97.2095 98.4947 97.2095C97.8719 97.2095 97.3652 97.6983 97.3652 98.312C97.3652 98.9257 97.8719 99.4041 98.4947 99.4041C99.1175 99.4041 99.6241 98.9153 99.6241 98.312Z" fill="#FFE6C3"/>
<path d="M75.1133 93.7251C75.1133 94.3283 75.6199 94.8172 76.2427 94.8172C76.8655 94.8172 77.3722 94.3283 77.3722 93.7251C77.3722 93.1218 76.8655 92.6226 76.2427 92.6226C75.6199 92.6226 75.1133 93.1218 75.1133 93.7251Z" fill="#FFE6C3"/>
<path d="M78.0586 93.7251C78.0586 94.3283 78.5653 94.8172 79.188 94.8172C79.8108 94.8172 80.3175 94.3283 80.3175 93.7251C80.3175 93.1218 79.8108 92.6226 79.188 92.6226C78.5653 92.6226 78.0586 93.1218 78.0586 93.7251Z" fill="#FFE6C3"/>
<path d="M61.0117 93.7251C61.0117 94.3283 61.5184 94.8172 62.1412 94.8172C62.7639 94.8172 63.2706 94.3283 63.2706 93.7251C63.2706 93.1218 62.7639 92.6226 62.1412 92.6226C61.5184 92.6226 61.0117 93.1218 61.0117 93.7251Z" fill="#FFE6C3"/>
<path d="M63.957 93.7251C63.957 94.3283 64.4637 94.8172 65.0865 94.8172C65.7092 94.8172 66.2159 94.3283 66.2159 93.7251C66.2159 93.1218 65.7092 92.6226 65.0865 92.6226C64.4637 92.6226 63.957 93.1218 63.957 93.7251Z" fill="#FFE6C3"/>
<path d="M57.022 82.0444C57.6448 82.0444 58.1515 81.5556 58.1515 80.9419C58.1515 80.3282 57.6448 79.8394 57.022 79.8394C56.3992 79.8394 55.8926 80.3282 55.8926 80.9419C55.8926 81.5556 56.3992 82.0444 57.022 82.0444Z" fill="#FFE6C3"/>
<path d="M59.9771 82.0444C60.5999 82.0444 61.1065 81.5556 61.1065 80.9419C61.1065 80.3282 60.5999 79.8394 59.9771 79.8394C59.3543 79.8394 58.8477 80.3282 58.8477 80.9419C58.8477 81.5556 59.3438 82.0444 59.9771 82.0444Z" fill="#FFE6C3"/>
<path d="M2.90288 82.0444C3.52566 82.0444 4.03233 81.5556 4.03233 80.9419C4.03233 80.3282 3.52566 79.8394 2.90288 79.8394C2.2801 79.8394 1.77344 80.3282 1.77344 80.9419C1.77344 81.5556 2.26955 82.0444 2.90288 82.0444Z" fill="#FFE6C3"/>
<path d="M5.84819 82.0444C6.47097 82.0444 6.97764 81.5556 6.97764 80.9419C6.97764 80.3282 6.47097 79.8394 5.84819 79.8394C5.22542 79.8394 4.71875 80.3282 4.71875 80.9419C4.71875 81.5556 5.22542 82.0444 5.84819 82.0444Z" fill="#FFE6C3"/>
<path d="M33.9776 98.312C33.9776 97.7087 33.471 97.2095 32.8482 97.2095C32.2254 97.2095 31.7188 97.6983 31.7188 98.312C31.7188 98.9257 32.2254 99.4041 32.8482 99.4041C33.471 99.4041 33.9776 98.9153 33.9776 98.312Z" fill="#FFE6C3"/>
<path d="M36.923 98.312C36.923 97.7087 36.4163 97.2095 35.7935 97.2095C35.1707 97.2095 34.6641 97.6983 34.6641 98.312C34.6641 98.9257 35.1707 99.4041 35.7935 99.4041C36.4163 99.4041 36.923 98.9153 36.923 98.312Z" fill="#FFE6C3"/>
<path d="M3.6314 112.291C4.25517 112.291 4.76084 111.797 4.76084 111.188C4.76084 110.58 4.25517 110.086 3.6314 110.086C3.00762 110.086 2.50195 110.58 2.50195 111.188C2.50195 111.797 3.00762 112.291 3.6314 112.291Z" fill="#FFE6C3"/>
<path d="M6.57671 110.086C5.95393 110.086 5.44727 110.575 5.44727 111.188C5.44727 111.802 5.95393 112.291 6.57671 112.291C7.19949 112.291 7.70615 111.802 7.70615 111.188C7.70615 110.575 7.19949 110.086 6.57671 110.086Z" fill="#FFE6C3"/>
<path d="M70.5948 111.188C70.5948 110.585 70.0882 110.086 69.4654 110.086C68.8426 110.086 68.3359 110.575 68.3359 111.188C68.3359 111.802 68.8426 112.291 69.4654 112.291C70.0882 112.291 70.5948 111.792 70.5948 111.188Z" fill="#FFE6C3"/>
<path d="M73.5401 111.188C73.5401 110.585 73.0335 110.086 72.4107 110.086C71.7879 110.086 71.2812 110.575 71.2812 111.188C71.2812 111.802 71.7879 112.291 72.4107 112.291C73.0335 112.291 73.5401 111.792 73.5401 111.188Z" fill="#FFE6C3"/>
<path d="M79.4419 112.291C80.0657 112.291 80.5714 111.797 80.5714 111.188C80.5714 110.58 80.0657 110.086 79.4419 110.086C78.8182 110.086 78.3125 110.58 78.3125 111.188C78.3125 111.797 78.8182 112.291 79.4419 112.291Z" fill="#FFE6C3"/>
<path d="M23.6447 101.193H24.468V100.319H23.6447C23.0958 100.319 22.6525 100.756 22.6525 101.287V101.723H21.998V102.597H24.468V101.723H23.5603V101.287C23.5497 101.235 23.5919 101.193 23.6447 101.193Z" fill="#FFE6C3"/>
<path d="M42.2008 79.8394V89.45H38.2108L40.1108 86.1529C40.343 85.6224 40.2797 85.0191 39.9525 84.5407C39.6675 84.1246 39.2136 83.8646 38.7175 83.8022V83.771H33.1652V83.8022C32.6691 83.8646 32.2152 84.1246 31.9302 84.5407C31.603 85.0191 31.5397 85.6224 31.7825 86.1841L33.7247 89.45H20.3614V79.881H16.0547V81.8884H18.2925V91.4575H44.2697V79.8498L42.2008 79.8394ZM35.973 89.398L33.8725 85.7888H38.0208L35.973 89.398Z" fill="#FFE6C3"/>
<path d="M14.2082 83.7813H9.24704V89.4499H6.94593V82.918H4.87704V84.655H2.09037C0.950373 84.655 0.0214844 85.5495 0.0214844 86.652V91.4573H16.3826V85.8823C16.3826 84.7278 15.4115 83.7813 14.2082 83.7813ZM4.87704 89.4499H2.10093V86.6624H4.8876L4.87704 89.4499ZM14.3137 89.4499H11.3265V85.7887H14.2187C14.2715 85.7887 14.3243 85.8303 14.3243 85.8927L14.3137 89.4499Z" fill="#FFE6C3"/>
<path d="M65.6028 83.7917V89.4499H61.0534V82.918H58.9845V84.655H56.1978C55.0578 84.655 54.1289 85.5495 54.1289 86.652V91.4573H67.6822V83.7917H65.6028ZM58.9739 89.4499H56.1978V86.6624H58.9845V89.4499H58.9739Z" fill="#FFE6C3"/>
<path d="M101.091 79.8394V89.45H99.085V85.8304C99.085 84.6967 98.135 83.7814 96.9739 83.7814H92.0867V89.45H89.68V85.8304C89.68 84.6967 88.73 83.7814 87.5689 83.7814H83.7161V85.7888L87.6111 85.8304V89.45H82.6289V91.4575H103.181V79.8394H101.091ZM97.0161 89.45H94.1556V85.8096L97.0161 85.8408V89.45Z" fill="#FFE6C3"/>
<path d="M83.7272 106.83V105.166C83.7272 102.951 81.8694 101.151 79.5789 101.151H76.9294V103.159H79.5789C80.7189 103.159 81.6583 104.064 81.6583 105.166V106.83H74.2061V101.162H72.1372V106.82H68.485V100.288H66.4161V102.025H63.6294C62.4894 102.025 61.5605 102.92 61.5605 104.022V108.817H67.4083V108.827H86.1761V106.82L83.7272 106.83ZM66.4055 105.312V106.82H63.6294V105.312V104.033H66.4161L66.4055 105.312Z" fill="#FFE6C3"/>
<path d="M107.097 97.2197V106.83H104.775V97.2197H102.706V106.83H99.3497V101.307H97.2808V106.83H94.3569V103.492C94.3569 102.316 93.3647 101.359 92.1508 101.359H87.4219V108.848H92.2669C92.1824 109.94 91.243 110.336 90.0924 110.336H87.5802V112.343H90.0924C92.383 112.343 94.2513 111.053 94.3358 108.848H109.166V97.2197H107.097ZM92.2774 105.052V106.83H89.4908V103.356H92.1508C92.2247 103.356 92.2774 103.419 92.2774 103.481V105.052Z" fill="#FFE6C3"/>
</svg>
