<svg width="21" height="20" viewBox="0 0 21 20" fill="none" xmlns="http://www.w3.org/2000/svg">
<g id="Asset 5 1" clip-path="url(#clip0_288_1759)">
<g id="Layer 2">
<g id="Layer 1">
<path id="Vector" d="M18.8236 2.66996H17.8244V1.67074C17.8244 1.44736 17.7797 1.22623 17.6929 1.02043C17.606 0.814635 17.4787 0.628349 17.3186 0.472594C17.1585 0.316839 16.9688 0.194779 16.7606 0.113633C16.5525 0.0324878 16.3302 -0.0060945 16.1069 0.000168506H2.05542C1.63157 0.0279557 1.23422 0.216155 0.944191 0.526487C0.654161 0.836819 0.493235 1.24598 0.494144 1.67074V15.7223C0.506396 16.1557 0.688293 16.5671 1.00071 16.8678C1.31312 17.1685 1.73109 17.3346 2.16471 17.3304H3.16393V18.3296C3.16393 18.7727 3.33994 19.1976 3.65323 19.5109C3.96652 19.8242 4.39144 20.0002 4.8345 20.0002H18.886C19.3291 20.0002 19.754 19.8242 20.0673 19.5109C20.3806 19.1976 20.5566 18.7727 20.5566 18.3296V4.27808C20.5566 3.83501 20.3806 3.4101 20.0673 3.0968C19.754 2.78351 19.3291 2.60751 18.886 2.60751M1.82123 15.613V1.56145C1.84502 1.49024 1.89149 1.42878 1.95352 1.38649C2.01555 1.34419 2.08974 1.32339 2.16471 1.32726H16.2162C16.3073 1.32726 16.3947 1.36344 16.4591 1.42786C16.5235 1.49228 16.5597 1.57964 16.5597 1.67074V15.7223C16.5557 15.8106 16.5177 15.894 16.4538 15.9551C16.3898 16.0162 16.3047 16.0502 16.2162 16.0501H2.16471C2.11052 16.0522 2.05661 16.0414 2.00739 16.0186C1.95817 15.9959 1.91504 15.9618 1.88154 15.9191C1.84803 15.8765 1.8251 15.8265 1.81462 15.7733C1.80414 15.7201 1.8064 15.6651 1.82123 15.613ZM19.2295 18.3296C19.2295 18.3747 19.2206 18.4194 19.2034 18.461C19.1861 18.5027 19.1608 18.5406 19.1289 18.5725C19.097 18.6044 19.0591 18.6297 19.0175 18.6469C18.9758 18.6642 18.9311 18.6731 18.886 18.6731H4.8345C4.7894 18.6731 4.74473 18.6642 4.70306 18.6469C4.66139 18.6297 4.62352 18.6044 4.59163 18.5725C4.55973 18.5406 4.53443 18.5027 4.51717 18.461C4.49991 18.4194 4.49102 18.3747 4.49102 18.3296V17.3304H16.1069C16.3348 17.3392 16.5621 17.3007 16.7744 17.2175C16.9867 17.1343 17.1796 17.0081 17.3409 16.8469C17.5021 16.6856 17.6283 16.4928 17.7115 16.2804C17.7947 16.0681 17.8331 15.8409 17.8244 15.613V3.99705H18.8236C18.8687 3.99705 18.9133 4.00593 18.955 4.02319C18.9967 4.04045 19.0346 4.06575 19.0665 4.09765C19.0983 4.12954 19.1236 4.16741 19.1409 4.20908C19.1582 4.25076 19.1671 4.29542 19.1671 4.34053L19.2295 18.3296Z" fill="#88A7A2"/>
<path id="Vector_2" d="M13.671 5.99511L11.6257 5.69847L10.7202 3.84055C10.5744 3.55153 10.3512 3.30864 10.0756 3.13895C9.79993 2.96925 9.48258 2.87939 9.15888 2.87939C8.83517 2.87939 8.51782 2.96925 8.24217 3.13895C7.96651 3.30864 7.74337 3.55153 7.5976 3.84055L6.73889 5.69847L4.69362 5.99511C4.37413 6.04156 4.07374 6.17554 3.82573 6.38222C3.57771 6.5889 3.39176 6.8602 3.28846 7.16608C3.17594 7.46707 3.14701 7.79292 3.20474 8.10904C3.26246 8.42515 3.40469 8.71974 3.61633 8.96155L5.17761 10.3979L4.81852 12.49C4.75645 12.8097 4.78829 13.1406 4.9102 13.4426C5.03211 13.7446 5.23886 14.0048 5.50548 14.1918C5.76718 14.3828 6.07757 14.4959 6.4008 14.518C6.72403 14.5401 7.04692 14.4703 7.33218 14.3167L9.15888 13.3644L10.9856 14.3167C11.2343 14.4528 11.5139 14.5227 11.7974 14.5197C12.1619 14.5209 12.5174 14.406 12.8123 14.1918C13.0774 14.0028 13.284 13.7429 13.4082 13.442C13.5325 13.141 13.5694 12.8111 13.5148 12.49L13.1558 10.4604L14.717 9.024C14.9473 8.79341 15.1098 8.50405 15.1869 8.18744C15.264 7.87084 15.2527 7.53915 15.1542 7.22853C15.0525 6.92173 14.867 6.64949 14.6187 6.44257C14.3704 6.23565 14.0691 6.10229 13.749 6.05757M13.749 8.056L11.9848 9.67974C11.9041 9.75381 11.8433 9.84691 11.8078 9.95055C11.7723 10.0542 11.7634 10.165 11.7818 10.273L12.1878 12.6462C12.2049 12.7217 12.1993 12.8006 12.1715 12.8729C12.1437 12.9452 12.095 13.0076 12.0316 13.0521C11.9666 13.0863 11.8943 13.1042 11.8209 13.1042C11.7474 13.1042 11.6751 13.0863 11.6101 13.0521L9.47113 11.9592C9.37483 11.9086 9.26767 11.8822 9.15888 11.8822C9.05009 11.8822 8.94293 11.9086 8.84662 11.9592L6.73889 13.0833C6.67113 13.1176 6.59626 13.1355 6.52031 13.1355C6.44437 13.1355 6.36949 13.1176 6.30173 13.0833C6.23837 13.0388 6.18969 12.9764 6.16189 12.9041C6.13409 12.8318 6.12842 12.7529 6.14561 12.6774L6.55154 10.3042C6.5692 10.1976 6.56143 10.0883 6.52888 9.98518C6.49632 9.88209 6.43989 9.78814 6.36418 9.71096L4.61555 7.99355C4.56152 7.94276 4.52378 7.87707 4.5071 7.80481C4.49042 7.73254 4.49557 7.65696 4.52187 7.58762C4.53783 7.51393 4.57657 7.44712 4.63262 7.39668C4.68866 7.34624 4.75917 7.31472 4.83413 7.30659L7.22289 6.96311C7.33036 6.94619 7.43258 6.90507 7.52183 6.84286C7.61108 6.78066 7.68504 6.69898 7.73811 6.60401L8.79978 4.43383C8.83425 4.36846 8.8859 4.31373 8.94919 4.27555C9.01247 4.23737 9.08497 4.2172 9.15888 4.2172C9.23278 4.2172 9.30529 4.23737 9.36857 4.27555C9.43185 4.31373 9.48351 4.36846 9.51797 4.43383L10.5953 6.60401C10.6439 6.69936 10.7146 6.7817 10.8015 6.84416C10.8884 6.90663 10.989 6.94741 11.0949 6.96311L13.4836 7.30659C13.5592 7.31784 13.63 7.35018 13.688 7.39989C13.746 7.4496 13.7888 7.51467 13.8115 7.58762C13.8339 7.65866 13.8355 7.73463 13.8162 7.80656C13.7968 7.87849 13.7573 7.94337 13.7022 7.99355" fill="#88A7A2"/>
</g>
</g>
</g>
<defs>
<clipPath id="clip0_288_1759">
<rect width="20" height="20" fill="white" transform="translate(0.494141)"/>
</clipPath>
</defs>
</svg>
