<svg width="21" height="21" viewBox="0 0 21 21" fill="none" xmlns="http://www.w3.org/2000/svg">
<g id="Asset 6 1">
<g id="Layer 2">
<g id="Layer 1">
<path id="Vector" d="M16.2292 5.33936H14.5586V6.66644H16.2292V5.33936Z" fill="#88A7A2"/>
<path id="Vector_2" d="M18.8971 5.33936H17.2266V6.66644H18.8971V5.33936Z" fill="#88A7A2"/>
<path id="Vector_3" d="M20.2251 2.66979H9.96752L8.82779 0.374708C8.77455 0.262466 8.69052 0.167656 8.58548 0.101319C8.48045 0.0349812 8.35873 -0.000155222 8.2345 5.15473e-07H1.56783C1.38978 5.15473e-07 1.21902 0.0707319 1.09312 0.196635C0.967216 0.322537 0.896484 0.493298 0.896484 0.671351L0.896484 11.3349C0.896484 11.5129 0.967216 11.6837 1.09312 11.8096C1.21902 11.9355 1.38978 12.0062 1.56783 12.0062H5.23684V12.4902C5.23123 14.16 5.75584 15.7883 6.73509 17.1408C7.71433 18.4932 9.09765 19.4998 10.6857 20.0156H10.9043H11.1073C12.6866 19.4917 14.0597 18.4817 15.03 17.1299C16.0003 15.7782 16.5181 14.1542 16.5093 12.4902V12.0062H20.1783C20.3563 12.0062 20.5271 11.9355 20.653 11.8096C20.7789 11.6837 20.8496 11.5129 20.8496 11.3349V3.32553C20.8497 3.23809 20.8322 3.15152 20.7983 3.07093C20.7644 2.99034 20.7147 2.91734 20.6521 2.85624C20.5895 2.79514 20.5154 2.74717 20.434 2.71515C20.3527 2.68313 20.2657 2.66771 20.1783 2.66979M15.229 12.4902C15.2455 13.8513 14.838 15.1838 14.0631 16.3028C13.2881 17.4219 12.1842 18.272 10.9043 18.7354C9.62149 18.2746 8.51415 17.4256 7.73626 16.3063C6.95837 15.187 6.5486 13.8532 6.56393 12.4902V9.46136L10.9043 8.04059L15.229 9.46136V12.4902ZM19.6318 10.6635H16.5093V8.97736C16.5128 8.83613 16.4707 8.69752 16.3891 8.58218C16.3075 8.46683 16.1909 8.38092 16.0565 8.33724L11.0604 6.77596C10.9237 6.72956 10.7756 6.72956 10.6389 6.77596L5.64278 8.33724C5.50842 8.38092 5.39176 8.46683 5.31018 8.58218C5.2286 8.69752 5.18645 8.83613 5.19001 8.97736V10.6635H2.22357V1.29586H7.81296L8.48431 2.63856H4.89336V3.96565H19.6318V10.6635Z" fill="#88A7A2"/>
<path id="Vector_4" d="M8.88989 11.7563L7.95312 12.6931L9.7486 14.4885C9.87395 14.6106 10.042 14.6789 10.217 14.6789C10.392 14.6789 10.56 14.6106 10.6854 14.4885L13.8079 11.366L12.8712 10.4292L10.2638 13.0678L8.88989 11.7563Z" fill="#88A7A2"/>
</g>
</g>
</g>
</svg>
