<svg width="30" height="30" viewBox="0 0 30 30" fill="none" xmlns="http://www.w3.org/2000/svg">
<g id="fluent-mdl2:c-r-m-services" clip-path="url(#clip0_243_189)">
<path id="Vector" d="M12.428 17.3628C13.2609 16.6529 14.1837 16.1087 15.1965 15.7301C16.2092 15.3515 17.2598 15.1622 18.3483 15.1622C19.1812 15.1622 19.9858 15.2711 20.7619 15.4887C21.538 15.7064 22.2621 16.0093 22.9341 16.3974C23.6061 16.7854 24.2166 17.2587 24.7656 17.8171C25.3145 18.3756 25.7878 18.9908 26.1853 19.6628C26.5828 20.3348 26.8904 21.0589 27.1081 21.835C27.3258 22.6111 27.4347 23.4157 27.4347 24.2486H29.252C29.252 23.1128 29.0863 22.0196 28.755 20.969C28.4238 19.9184 27.9458 18.9482 27.3211 18.0585C26.6964 17.1688 25.9581 16.3785 25.1063 15.6875C24.2545 14.9966 23.289 14.4523 22.21 14.0548C23.2796 13.3544 24.1125 12.4742 24.7088 11.4141C25.3051 10.354 25.6079 9.18035 25.6174 7.89312C25.6174 6.88983 25.4281 5.94807 25.0495 5.06782C24.6709 4.18758 24.1551 3.41619 23.502 2.75364C22.8489 2.09109 22.0775 1.57052 21.1878 1.19192C20.2981 0.813323 19.3516 0.624023 18.3483 0.624023C17.345 0.624023 16.4033 0.813323 15.523 1.19192C14.6428 1.57052 13.8714 2.08636 13.2088 2.73944C12.5463 3.39253 12.0257 4.16392 11.6471 5.05363C11.2685 5.94333 11.0792 6.88983 11.0792 7.89312C11.0792 8.5178 11.1549 9.12829 11.3064 9.72459C11.4578 10.3209 11.685 10.884 11.9879 11.4141C12.2907 11.9441 12.6457 12.4316 13.0527 12.8764C13.4597 13.3213 13.9376 13.7141 14.4866 14.0548C13.8714 14.2914 13.2846 14.5801 12.7261 14.9209C12.1677 15.2616 11.6424 15.6449 11.1502 16.0708L12.428 17.3628ZM23.8001 7.89312C23.8001 8.65031 23.6582 9.35545 23.3742 10.0085C23.0903 10.6616 22.7022 11.239 22.21 11.7406C21.7178 12.2423 21.1405 12.6351 20.4779 12.919C19.8154 13.203 19.1055 13.3449 18.3483 13.3449C17.6006 13.3449 16.8954 13.203 16.2329 12.919C15.5703 12.6351 14.993 12.247 14.5008 11.7548C14.0086 11.2626 13.6158 10.6853 13.3224 10.0227C13.029 9.36019 12.887 8.65031 12.8965 7.89312C12.8965 7.14538 13.0385 6.44024 13.3224 5.7777C13.6064 5.11515 13.9944 4.53779 14.4866 4.04561C14.9788 3.55343 15.5609 3.16063 16.2329 2.86722C16.9049 2.57381 17.61 2.43183 18.3483 2.4413C19.1055 2.4413 19.8107 2.58327 20.4637 2.86722C21.1168 3.15117 21.6942 3.53923 22.1958 4.03141C22.6975 4.52359 23.0903 5.10568 23.3742 5.7777C23.6582 6.44971 23.8001 7.15485 23.8001 7.89312ZM4.71877 11.5277C4.09408 11.5277 3.50725 11.646 2.95828 11.8826C2.40932 12.1192 1.93133 12.4458 1.52434 12.8622C1.11735 13.2787 0.790806 13.7614 0.544716 14.3104C0.298628 14.8593 0.175583 15.4462 0.175583 16.0708C0.175583 16.6955 0.293896 17.2824 0.530519 17.8313C0.767143 18.3803 1.09369 18.863 1.51014 19.2795C1.9266 19.6959 2.40932 20.0225 2.95828 20.2591C3.50725 20.4957 4.09408 20.614 4.71877 20.614C4.93646 20.614 5.14942 20.5998 5.35765 20.5714L13.6916 28.9053C13.9471 29.1609 14.2405 29.3549 14.5718 29.4874C14.9031 29.6199 15.2533 29.6909 15.6224 29.7004C16.001 29.7004 16.3559 29.6294 16.6872 29.4874C17.0185 29.3455 17.3072 29.1514 17.5533 28.9053C17.7993 28.6592 17.9934 28.3706 18.1354 28.0393C18.2773 27.708 18.3483 27.3531 18.3483 26.9745C18.3483 26.6148 18.2821 26.2693 18.1496 25.9381C18.017 25.6068 17.8183 25.3087 17.5533 25.0436L9.21936 16.7097C9.24775 16.5015 9.26195 16.2885 9.26195 16.0708C9.26195 15.4462 9.14364 14.8593 8.90701 14.3104C8.67039 13.7614 8.34858 13.2834 7.94159 12.8764C7.53459 12.4694 7.05188 12.1429 6.49345 11.8968C5.93501 11.6507 5.34345 11.5277 4.71877 11.5277ZM4.71877 18.7968C4.34017 18.7968 3.98523 18.7258 3.65396 18.5838C3.32268 18.4418 3.034 18.2478 2.78791 18.0017C2.54182 17.7556 2.34779 17.4669 2.20582 17.1357C2.06384 16.8044 1.99286 16.4494 1.99286 16.0708C1.99286 15.6828 2.08277 15.2947 2.26261 14.9067L4.33543 16.9795H5.6274V15.6875L3.55457 13.6147C3.94264 13.4349 4.3307 13.3449 4.71877 13.3449C5.09736 13.3449 5.4523 13.4159 5.78358 13.5579C6.11485 13.6999 6.40353 13.8939 6.64962 14.14C6.89571 14.3861 7.08974 14.6748 7.23171 15.006C7.37369 15.3373 7.44468 15.6922 7.44468 16.0708C7.44468 16.4589 7.35476 16.847 7.17492 17.235L16.2613 26.3356C16.4411 26.5154 16.531 26.7284 16.531 26.9745C16.531 27.2206 16.4411 27.4335 16.2613 27.6134C16.0815 27.7932 15.8685 27.8831 15.6224 27.8831C15.3763 27.8831 15.1634 27.7932 14.9835 27.6134L5.88296 18.527C5.49489 18.7068 5.10683 18.7968 4.71877 18.7968Z" fill="#32645B"/>
</g>
<defs>
<clipPath id="clip0_243_189">
<rect width="29.0764" height="29.0764" fill="white" transform="matrix(-1 0 0 1 29.2539 0.624023)"/>
</clipPath>
</defs>
</svg>
