<svg width="32" height="32" viewBox="0 0 32 32" fill="none" xmlns="http://www.w3.org/2000/svg">
<g id="Frame 460">
<path id="Vector" d="M16.2143 0.928711C7.81399 0.928711 0.980469 7.76223 0.980469 16.1626C0.980469 24.5629 7.81399 31.3965 16.2143 31.3965C24.6147 31.3965 31.4482 24.5629 31.4482 16.1626C31.4482 7.76223 24.6147 0.928711 16.2143 0.928711ZM16.2143 29.3655C8.93425 29.3655 3.01143 23.4427 3.01143 16.1626C3.01143 8.8825 8.93425 2.95967 16.2143 2.95967C23.4944 2.95967 29.4173 8.8825 29.4173 16.1626C29.4173 23.4427 23.4944 29.3655 16.2143 29.3655Z" fill="#32645B"/>
<path id="Vector_2" d="M16.2208 4.99219C10.061 4.99219 5.04883 10.0032 5.04883 16.1641C5.04883 22.3251 10.0599 27.3361 16.2208 27.3361C22.3817 27.3361 27.3927 22.3251 27.3927 16.1641C27.3927 10.0032 22.3817 4.99219 16.2208 4.99219ZM16.2208 7.02315C21.2614 7.02315 25.3607 11.1235 25.3607 16.163C25.3607 16.9673 25.2455 17.743 25.0501 18.487C23.9068 17.0189 22.4004 15.8415 20.6865 15.0878C20.7523 14.7794 20.7907 14.4601 20.7907 14.1321C20.7907 11.6117 18.7411 9.56213 16.2208 9.56213C13.7004 9.56213 11.6508 11.6117 11.6508 14.1321C11.6508 14.4601 11.6892 14.7794 11.7551 15.0878C10.0412 15.8405 8.53471 17.0189 7.3914 18.487C7.195 17.743 7.08089 16.9673 7.08089 16.163C7.08089 11.1235 11.1812 7.02315 16.2208 7.02315ZM18.7598 14.1321C18.7598 15.5321 17.6208 16.6711 16.2208 16.6711C14.8207 16.6711 13.6818 15.5321 13.6818 14.1321C13.6818 12.732 14.8207 11.5931 16.2208 11.5931C17.6208 11.5931 18.7598 12.732 18.7598 14.1321ZM16.2208 25.304C12.8501 25.304 9.90734 23.4651 8.32295 20.7429C9.30497 19.0531 10.8257 17.7024 12.6296 16.9245C13.4667 17.9987 14.7571 18.702 16.2208 18.702C17.6845 18.702 18.9759 17.9976 19.812 16.9245C21.6158 17.7013 23.1366 19.0531 24.1186 20.7429C22.5342 23.4651 19.5915 25.304 16.2208 25.304Z" fill="#32645B"/>
</g>
</svg>
