<svg width="46" height="48" viewBox="0 0 46 48" fill="none" xmlns="http://www.w3.org/2000/svg">
<g id="Frame 485">
<g id="Layer_1-2">
<g id="Group">
<path id="Vector" d="M32.5488 27.197C32.7427 27.1794 32.9542 27.1662 32.9542 27.1662L33.3508 27.1441H38.5242V0.202148H23.2112V1.20685H37.5195V26.1438H35.6467V22.7596C35.7833 22.2837 35.8978 21.7945 35.9816 21.3098C36.1226 20.5078 36.4927 18.3794 35.8582 15.9161C35.2765 13.6467 34.0867 12.1573 33.223 11.0688C32.1126 9.67635 30.9845 8.73334 29.4245 7.43339L29.2879 7.32323C28.4463 6.62257 27.6971 6.04531 26.829 5.37991C26.4721 5.1067 25.7318 4.54266 24.7976 3.85082C24.2335 3.4366 23.6607 3.02238 23.0966 2.61697L22.8102 2.41427L22.5238 2.61697C21.9465 3.02678 21.3737 3.44541 20.8228 3.85082C20.131 4.36199 19.4259 4.89078 18.787 5.37991C17.9145 6.04972 17.1653 6.62698 16.3281 7.32323L16.1959 7.43339C14.6315 8.73334 13.5035 9.67635 12.393 11.0688C11.5249 12.1573 10.3395 13.6467 9.75784 15.9161C9.12329 18.3794 9.49345 20.5078 9.63446 21.3098C9.71818 21.7989 9.83275 22.2881 9.96936 22.764V22.7772V26.1527H8.07452V1.20685H22.2858V0.202148H7.07422V27.1485H12.1771C12.5693 27.153 12.9614 27.1838 13.3492 27.2455C13.737 27.3028 14.5346 27.457 15.482 27.8404C16.0637 28.0739 17.0376 28.4705 18.0423 29.343C18.6504 29.8674 19.1748 30.4888 19.6066 31.185L19.8137 31.5331H25.7759L25.9521 31.2114C27.9219 27.6465 32.5047 27.2014 32.5488 27.197ZM31.4824 16.7137C31.0946 15.1978 30.3058 14.2108 29.733 13.4925C28.9971 12.5715 28.2568 11.9502 27.23 11.0997L27.1419 11.0248C26.5955 10.5665 26.1019 10.1919 25.5335 9.75127C25.3043 9.575 24.824 9.20925 24.2071 8.75537C23.8502 8.49538 23.48 8.22217 23.0966 7.94896L22.8102 7.74626L22.5238 7.94896C22.1536 8.20895 21.7835 8.48216 21.4133 8.75537C20.9506 9.09468 20.4923 9.4428 20.0869 9.75127C19.5185 10.1875 19.0293 10.5621 18.4785 11.0248L18.3948 11.0953C17.3681 11.9502 16.6277 12.5671 15.8918 13.4925C15.319 14.2152 14.5302 15.2022 14.1424 16.7137C13.7194 18.353 13.975 19.8204 14.0587 20.3007C14.116 20.618 14.1865 20.9352 14.2746 21.2437V21.2569L14.2702 21.8694H13.1113L13.0892 21.7989C12.9791 21.42 12.8865 21.0278 12.8204 20.64C12.7147 20.0319 12.4327 18.4102 12.9086 16.5639C13.3448 14.8761 14.2173 13.7789 14.918 12.8976C15.7817 11.8136 16.685 11.0644 17.9321 10.0201L18.0379 9.93194C18.7121 9.3723 19.3202 8.90079 20.0252 8.36318L20.0429 8.34996C20.3998 8.07675 20.9815 7.63609 21.7086 7.09849C22.0655 6.8385 22.4268 6.5697 22.7926 6.30971L22.819 6.29208L22.8455 6.30971C23.2024 6.56529 23.5637 6.82969 23.9251 7.09849C24.4935 7.51712 25.084 7.96218 25.5908 8.34996C26.3046 8.90079 26.9172 9.36789 27.5958 9.93194L27.7059 10.0201C28.9574 11.06 29.8564 11.8136 30.7201 12.8932C31.4251 13.7789 32.2976 14.8761 32.7295 16.5595C33.2054 18.4102 32.9234 20.0275 32.8176 20.6356C32.7515 21.0278 32.659 21.4156 32.5488 21.7945L32.5268 21.8606H31.3634V21.2349H31.3678V21.2173C31.4516 20.9132 31.5221 20.6047 31.575 20.3007C31.6499 19.8204 31.9054 18.3574 31.4824 16.7137ZM29.2835 17.2337C28.9927 16.0968 28.4022 15.3609 27.9748 14.8233C27.4283 14.1358 26.8819 13.6776 26.1196 13.0474L26.0579 12.9945C25.6525 12.6596 25.2911 12.382 24.8725 12.0603C24.7006 11.9281 24.3481 11.6593 23.8942 11.3288C23.6298 11.1349 23.3522 10.9322 23.079 10.7383L22.7926 10.5356L22.515 10.7339C22.2418 10.9278 21.9685 11.1261 21.6997 11.3244C21.2679 11.6417 20.9286 11.8973 20.7215 12.0603L20.7039 12.0735C20.2896 12.3908 19.9371 12.664 19.5405 12.9945L19.4788 13.0474C18.7209 13.682 18.1701 14.1358 17.6236 14.8233C17.1962 15.3609 16.6101 16.1012 16.3149 17.2337C15.9976 18.4675 16.1871 19.5604 16.2488 19.9217C16.2532 19.9393 16.262 19.9746 16.2752 20.0187C16.2884 20.0671 16.3105 20.1288 16.3281 20.1993L16.3413 20.2566H15.0458L15.0326 20.1861C15.0281 20.1685 15.0237 20.1553 15.0237 20.1376C14.94 19.6617 14.7197 18.4014 15.0898 16.9605C15.4291 15.6473 16.1078 14.7924 16.6586 14.105C17.3284 13.2633 18.0379 12.6728 19.0205 11.8532L19.1087 11.7783C19.6463 11.3288 20.1266 10.9587 20.6862 10.5312C21.096 10.214 21.5499 9.87465 21.9994 9.54416C22.2594 9.35026 22.5238 9.16078 22.7882 8.9713L22.8146 8.95367L22.8411 8.9713C23.1055 9.16078 23.3699 9.35026 23.6254 9.54416C24.238 9.99804 24.7095 10.355 24.9386 10.5312C25.4982 10.9631 25.983 11.3332 26.5162 11.7783L26.5999 11.8488C27.5826 12.6684 28.292 13.2589 28.9618 14.1006C29.5083 14.788 30.1913 15.6429 30.5306 16.9561C30.9007 18.3926 30.6804 19.6573 30.5967 20.1288C30.5923 20.1465 30.5923 20.1597 30.5879 20.1773L30.5747 20.2478H29.2747L29.2835 20.1949C29.3011 20.1068 29.3188 20.0363 29.332 19.9878C29.3408 19.957 29.3452 19.9305 29.3496 19.9173C29.4113 19.5604 29.6008 18.4675 29.2835 17.2337ZM22.7485 20.1553C23.5902 20.1553 24.2776 19.4722 24.2776 18.6262C24.2776 17.974 23.8634 17.3923 23.2465 17.1808L23.2156 17.172V12.0427L23.3126 12.1176C23.762 12.4481 24.1146 12.7169 24.282 12.8447C24.6918 13.162 25.0444 13.4308 25.4321 13.7525L25.4938 13.8053C26.2077 14.4002 26.7233 14.8277 27.208 15.4358C27.6222 15.9558 28.0937 16.5463 28.3317 17.4805C28.5961 18.5072 28.4374 19.4105 28.3802 19.7543C28.3405 19.9746 28.292 20.1949 28.2303 20.402L28.2127 20.4637L28.1907 20.4725C26.2033 21.1159 24.3966 22.1338 22.819 23.4999L22.7882 23.5263L22.7573 23.4999C21.2326 22.1823 19.4964 21.1864 17.5928 20.5386C17.5311 20.5166 17.4738 20.499 17.4121 20.4814L17.3901 20.4725L17.3725 20.4064C17.3108 20.1949 17.2579 19.9746 17.2226 19.7587C17.1653 19.4194 17.0067 18.516 17.2711 17.4849C17.5135 16.5507 17.9806 15.9602 18.3948 15.4402C18.8795 14.8321 19.3951 14.4046 20.109 13.8097L20.1751 13.7569C20.5628 13.4352 20.9198 13.162 21.3296 12.8447C21.5235 12.6949 21.8363 12.4569 22.2241 12.1705L22.2946 12.1176V17.1764L22.2638 17.1852C21.6469 17.3967 21.2282 17.9784 21.2282 18.6306C21.2238 19.4678 21.9069 20.1553 22.7485 20.1553ZM13.1025 22.8477H14.2085C14.539 22.9314 14.8651 23.0196 15.1824 23.1165C15.6759 23.2663 16.6321 23.5704 17.4474 23.9229C18.4961 24.3812 19.5449 25.0202 20.5584 25.8266L20.5937 25.853L20.5672 25.8883C20.4483 26.0469 20.3249 26.2143 20.2059 26.3862C20.0869 26.5581 19.9724 26.7299 19.8666 26.8974L19.8402 26.9414L19.8005 26.9106C18.9985 26.2893 18.0687 25.7428 17.042 25.2801C15.3895 24.5398 13.8868 24.2137 13.1333 24.086L13.0936 24.0771L13.1025 22.8477ZM15.3851 22.1559L15.2529 22.1294L15.2353 21.2393H16.3589C17.5752 21.5433 18.7297 22.0016 19.8093 22.6097C20.5937 23.0504 21.3384 23.5748 22.0214 24.1653L22.0567 24.1961L22.0214 24.2314C21.8848 24.3636 21.7526 24.5046 21.6248 24.6412C21.497 24.7778 21.3693 24.9232 21.2459 25.0642L21.215 25.0995L21.1798 25.0686C19.47 23.6189 17.4121 22.5833 15.3851 22.1559ZM21.973 25.7252C22.2241 25.4388 22.4841 25.1568 22.7529 24.8924L22.7838 24.8615L22.8146 24.8924C23.0922 25.1656 23.3566 25.4476 23.599 25.7296L23.6254 25.7605L23.5946 25.7913C23.3258 26.0557 23.0658 26.3333 22.819 26.6154L22.7838 26.655L22.7485 26.6154C22.5017 26.3289 22.2374 26.0513 21.9685 25.7869L21.9377 25.7561L21.973 25.7252ZM23.5461 24.227L23.5109 24.1917L23.5505 24.1609C24.2644 23.5528 25.0355 23.0152 25.8508 22.5569C26.0138 22.4643 26.168 22.385 26.3179 22.3057L26.3399 22.2925C26.5823 22.1691 27.0406 21.9355 27.5914 21.724C28.1202 21.5213 28.6754 21.3539 29.2439 21.2349H30.3675V22.1162L30.3323 22.125C28.2612 22.5392 26.1592 23.5792 24.4098 25.0554L24.3613 25.0995L24.3305 25.0642C24.0793 24.7778 23.8193 24.5002 23.5461 24.227ZM25.0091 25.8354C25.8155 25.1479 26.6924 24.5663 27.6178 24.1036C28.0056 23.9097 29.0632 23.4206 30.5306 23.0945C30.9933 22.9931 31.4648 22.9094 31.9319 22.8521H32.5136V24.0639H32.4695C31.8922 24.0904 31.3194 24.1609 30.7685 24.271C29.0852 24.6059 27.446 25.3815 26.0314 26.5052C25.9301 26.5889 25.8199 26.677 25.6877 26.7916L25.6481 26.8269L25.6216 26.7828C25.4233 26.4832 25.2162 26.1835 25.0047 25.9015L24.9783 25.8662L25.0091 25.8354ZM34.6596 26.1659L34.6111 26.1615C34.1308 26.1306 33.6416 26.1306 33.1657 26.1615C32.5268 26.2011 32.0112 26.2849 31.6895 26.3465C31.3238 26.4171 30.5791 26.5889 29.7021 26.9326C28.5696 27.3777 27.5782 27.977 26.7541 28.7085L26.7101 28.7481L26.6836 28.6953C26.5294 28.3648 26.3619 28.0343 26.1857 27.717L26.168 27.6862L26.1945 27.6641C27.5914 26.4215 29.2394 25.5798 30.958 25.2361C31.4604 25.1347 31.976 25.073 32.5003 25.051L33.505 25.0025L33.5491 24.9937H34.6596V26.1659ZM10.6039 21.1379C10.4761 20.3932 10.1324 18.4147 10.7141 16.1585C11.2473 14.0918 12.3093 12.7566 13.1686 11.6814C14.2173 10.3638 15.3102 9.45162 16.8304 8.18692L16.9626 8.07675C17.7823 7.38932 18.527 6.82087 19.3907 6.15547C20.0296 5.66634 20.7259 5.14195 21.4089 4.6396C21.8584 4.30911 22.3255 3.9698 22.7882 3.6393L22.8146 3.62168L22.8411 3.6393C23.2773 3.95217 23.74 4.29148 24.2159 4.6396C25.084 5.27856 25.7935 5.81617 26.2386 6.15988L26.2518 6.16869C27.1111 6.82528 27.847 7.39814 28.6666 8.07675L28.7988 8.18692C30.3191 9.45162 31.4119 10.3638 32.4607 11.6814C33.3156 12.7566 34.382 14.0962 34.9152 16.1585C35.4968 18.4191 35.1531 20.3932 35.0253 21.1379C34.9416 21.6183 34.8314 22.0942 34.6948 22.5569L34.6728 22.623V24.0066H33.5139L33.5095 22.0016C33.6196 21.6094 33.7122 21.2084 33.7827 20.8074C33.8972 20.142 34.2057 18.3706 33.6769 16.3171C33.1922 14.4267 32.2051 13.1884 31.4824 12.2807C30.5614 11.1217 29.6272 10.3418 28.3317 9.26654L28.2215 9.174C27.5253 8.59233 26.9039 8.11641 26.1857 7.56559C25.6833 7.17781 25.084 6.72833 24.5068 6.30089C24.0441 5.96158 23.5726 5.61787 23.101 5.28297L22.8146 5.08026L22.5282 5.28297C22.0523 5.62227 21.5808 5.96158 21.1225 6.30089C20.3998 6.83409 19.8093 7.28357 19.4436 7.56559C18.7209 8.12082 18.0995 8.59674 17.4077 9.174L17.302 9.26213C16.0064 10.3418 15.0722 11.1217 14.1512 12.2807C13.433 13.184 12.4459 14.4223 11.9567 16.3171C11.4279 18.3706 11.7364 20.142 11.851 20.8074C11.9215 21.2129 12.014 21.6139 12.1242 22.0016V22.0149L12.1154 24.0066H10.9608V22.623L10.9432 22.5569C10.7978 22.0942 10.6876 21.6183 10.6039 21.1379ZM19.3202 27.8404C19.2453 27.977 19.1748 28.1136 19.0998 28.259C19.0293 28.4 18.9588 28.541 18.8927 28.6865L18.8663 28.7393L18.8222 28.6997C18.43 28.3692 18.0114 28.0651 17.584 27.7963C17.5752 27.7919 16.7467 27.2719 15.839 26.9106C13.9794 26.1659 11.8334 26.1218 11.0005 26.1394H10.952V24.9849H12.1022V24.9981C12.697 25.0334 13.2875 25.1171 13.8692 25.2449C14.5522 25.3947 15.0458 25.5666 15.341 25.6723C15.7288 25.8089 16.5176 26.113 17.4518 26.6154C18.0907 26.9591 18.7121 27.3513 19.3026 27.7831L19.3334 27.8051L19.3202 27.8404ZM20.9286 29.4444C20.7567 29.7881 20.5981 30.145 20.4615 30.502L20.4527 30.5328H20.3645L20.3513 30.5108C20.131 30.1583 19.8842 29.8234 19.6286 29.5237L19.611 29.5017L19.6242 29.4752C19.7608 29.1536 19.9151 28.8363 20.0737 28.5322L20.1001 28.4793L20.1442 28.5234C20.4262 28.801 20.6862 29.0963 20.9286 29.4003L20.9462 29.4224L20.9286 29.4444ZM21.4574 28.4882L21.4177 28.4397C21.1754 28.1533 20.911 27.88 20.6333 27.6156L20.6069 27.5892L20.6289 27.5584C20.8361 27.2235 21.0652 26.893 21.2987 26.5713L21.3296 26.5272L21.3648 26.5625C21.6336 26.8357 21.898 27.1177 22.1404 27.4085L22.1624 27.435L22.1404 27.4658C21.9069 27.7787 21.6909 28.1048 21.4926 28.4265L21.4574 28.4882ZM23.458 29.3651C23.2332 29.722 23.0261 30.0966 22.8455 30.4755L22.8058 30.5593L22.7661 30.4755C22.5723 30.0922 22.3563 29.7176 22.1184 29.3607L22.1007 29.3386L22.114 29.3122C22.3079 28.9729 22.5194 28.6336 22.7485 28.3075L22.7838 28.2546L22.819 28.3075C23.0482 28.6336 23.2641 28.9729 23.458 29.3122L23.4712 29.3342L23.458 29.3651ZM24.0969 28.4529L24.0617 28.3956C23.8678 28.0783 23.6563 27.7699 23.4359 27.4658L23.4139 27.435L23.4359 27.4085C23.6827 27.1177 23.9427 26.8313 24.2071 26.5669L24.2424 26.5316L24.2732 26.5757C24.4935 26.8709 24.7006 27.175 24.8945 27.479L24.9122 27.5099L24.8857 27.5363C24.6169 27.8139 24.3657 28.1048 24.1278 28.4044L24.0969 28.4529ZM25.225 30.5108L25.2118 30.5328H25.1237L25.1149 30.502C24.9739 30.1362 24.8108 29.7705 24.639 29.4268L24.6257 29.4003L24.6434 29.3783C24.8725 29.061 25.1281 28.7481 25.4013 28.4485L25.4454 28.4L25.4762 28.4573C25.6525 28.7922 25.8199 29.1359 25.9653 29.4752L25.9786 29.5017L25.9609 29.5237C25.6921 29.8278 25.4454 30.1583 25.225 30.5108Z" fill="#FFE6C3"/>
<path id="Vector_2" d="M45.6017 38.099H44.641V34.0317H43.7773V38.9495H45.6017V38.099Z" fill="#FFE6C3"/>
<path id="Vector_3" d="M19.2148 34.0317V38.9495H21.0436V38.099H20.0829V34.0317H19.2148Z" fill="#FFE6C3"/>
<path id="Vector_4" d="M4.83594 45.4446V46.295H10.0313V44.2151H9.16763V45.4446H7.78396V43.9155C7.78396 43.4351 7.38736 43.0474 6.89823 43.0474H5.28982V43.8978L6.91586 43.9155V45.4446H4.83594Z" fill="#FFE6C3"/>
<path id="Vector_5" d="M29.9556 35.7017V38.8348C29.9556 39.3327 29.5458 39.5354 29.039 39.5354H28.5234V40.3859H29.039C29.9776 40.3859 30.7444 39.8615 30.8061 38.9537H33.9788V35.7061H33.1151V38.0989H30.8237V35.7017H29.9556Z" fill="#FFE6C3"/>
<g id="Group_2">
<path id="Vector_6" d="M23.6274 45.4442V44.8185V41.377H22.7637V44.8185V46.2947H24.588V45.4442H23.6274Z" fill="#FFE6C3"/>
<path id="Vector_7" d="M21.1373 44.8185V45.4442H19.4716L19.8286 44.8185L20.2648 44.0474C20.3618 43.8226 20.3353 43.567 20.1987 43.3643C20.0797 43.1881 19.8902 43.0779 19.6831 43.0515V43.0382H17.3653V43.0515C17.1582 43.0779 16.9687 43.1881 16.8497 43.3643C16.7131 43.567 16.6866 43.8226 16.788 44.0606L17.2331 44.8185L17.5988 45.4442H15.8979V43.946C15.8979 43.4525 15.4925 43.0515 14.9901 43.0515H12.919V45.4442H12.0245V41.3902H10.2266V42.2406H11.1608V46.2947H22.0054V41.377H21.1417L21.1373 44.8185ZM15.0298 45.4442H13.7827V43.9019H14.9857C15.0077 43.9019 15.0298 43.9196 15.0298 43.946V45.4442ZM18.5374 45.4222L18.1893 44.8185L17.6605 43.8931H19.3923L18.8767 44.8185L18.5374 45.4222Z" fill="#FFE6C3"/>
</g>
<path id="Vector_8" d="M2.1328 46.2957C3.30936 46.2957 4.2656 45.3571 4.2656 44.2025V43.2419H2.98768L2.99649 42.3077C2.99649 42.2724 3.02734 42.2416 3.06259 42.2416H4.25238V41.3911H3.06259C2.54702 41.3911 2.1328 41.8009 2.1328 42.3077L2.11958 44.0924H3.39749V44.2025C3.39749 44.89 2.82904 45.4452 2.1328 45.4452C1.43655 45.4452 0.868102 44.8856 0.868102 44.2025V42.6822H0V44.2025C0 45.3571 0.956234 46.2957 2.1328 46.2957Z" fill="#FFE6C3"/>
<path id="Vector_9" d="M40.3629 41.8533C40.3629 41.5977 40.1514 41.3862 39.8914 41.3862C39.6314 41.3862 39.4199 41.5933 39.4199 41.8533C39.4199 42.1133 39.6314 42.316 39.8914 42.316C40.1514 42.316 40.3629 42.1089 40.3629 41.8533Z" fill="#FFE6C3"/>
<path id="Vector_10" d="M41.5875 41.8533C41.5875 41.5977 41.376 41.3862 41.116 41.3862C40.856 41.3862 40.6445 41.5933 40.6445 41.8533C40.6445 42.1133 40.856 42.316 41.116 42.316C41.376 42.316 41.5875 42.1089 41.5875 41.8533Z" fill="#FFE6C3"/>
<path id="Vector_11" d="M31.3555 39.91C31.3555 40.1656 31.567 40.3727 31.827 40.3727C32.087 40.3727 32.2985 40.1656 32.2985 39.91C32.2985 39.6544 32.087 39.4429 31.827 39.4429C31.567 39.4429 31.3555 39.6544 31.3555 39.91Z" fill="#FFE6C3"/>
<path id="Vector_12" d="M32.5879 39.91C32.5879 40.1656 32.7994 40.3727 33.0594 40.3727C33.3194 40.3727 33.5309 40.1656 33.5309 39.91C33.5309 39.6544 33.3194 39.4429 33.0594 39.4429C32.7994 39.4429 32.5879 39.6544 32.5879 39.91Z" fill="#FFE6C3"/>
<path id="Vector_13" d="M25.4727 39.91C25.4727 40.1656 25.6842 40.3727 25.9442 40.3727C26.2042 40.3727 26.4157 40.1656 26.4157 39.91C26.4157 39.6544 26.2042 39.4429 25.9442 39.4429C25.6842 39.4429 25.4727 39.6544 25.4727 39.91Z" fill="#FFE6C3"/>
<path id="Vector_14" d="M26.7012 39.91C26.7012 40.1656 26.9127 40.3727 27.1727 40.3727C27.4327 40.3727 27.6442 40.1656 27.6442 39.91C27.6442 39.6544 27.4327 39.4429 27.1727 39.4429C26.9127 39.4429 26.7012 39.6544 26.7012 39.91Z" fill="#FFE6C3"/>
<path id="Vector_15" d="M23.8055 34.9615C24.0655 34.9615 24.277 34.7544 24.277 34.4944C24.277 34.2345 24.0655 34.0273 23.8055 34.0273C23.5455 34.0273 23.334 34.2345 23.334 34.4944C23.334 34.7544 23.5455 34.9615 23.8055 34.9615Z" fill="#FFE6C3"/>
<path id="Vector_16" d="M25.0399 34.9615C25.2999 34.9615 25.5114 34.7544 25.5114 34.4944C25.5114 34.2345 25.2999 34.0273 25.0399 34.0273C24.7799 34.0273 24.5684 34.2345 24.5684 34.4944C24.5684 34.7544 24.7755 34.9615 25.0399 34.9615Z" fill="#FFE6C3"/>
<path id="Vector_17" d="M1.21174 34.9615C1.47173 34.9615 1.68325 34.7544 1.68325 34.4944C1.68325 34.2345 1.47173 34.0273 1.21174 34.0273C0.951752 34.0273 0.740234 34.2345 0.740234 34.4944C0.740234 34.7544 0.947345 34.9615 1.21174 34.9615Z" fill="#FFE6C3"/>
<path id="Vector_18" d="M2.44026 34.9615C2.70025 34.9615 2.91176 34.7544 2.91176 34.4944C2.91176 34.2345 2.70025 34.0273 2.44026 34.0273C2.18027 34.0273 1.96875 34.2345 1.96875 34.4944C1.96875 34.7544 2.18027 34.9615 2.44026 34.9615Z" fill="#FFE6C3"/>
<path id="Vector_19" d="M14.1891 41.8533C14.1891 41.5977 13.9776 41.3862 13.7176 41.3862C13.4576 41.3862 13.2461 41.5933 13.2461 41.8533C13.2461 42.1133 13.4576 42.316 13.7176 42.316C13.9776 42.316 14.1891 42.1089 14.1891 41.8533Z" fill="#FFE6C3"/>
<path id="Vector_20" d="M15.4118 41.8533C15.4118 41.5977 15.2002 41.3862 14.9403 41.3862C14.6803 41.3862 14.4688 41.5933 14.4688 41.8533C14.4688 42.1133 14.6803 42.316 14.9403 42.316C15.2002 42.316 15.4118 42.1089 15.4118 41.8533Z" fill="#FFE6C3"/>
<path id="Vector_21" d="M1.51838 47.7765C1.77879 47.7765 1.98989 47.5674 1.98989 47.3094C1.98989 47.0514 1.77879 46.8423 1.51838 46.8423C1.25798 46.8423 1.04688 47.0514 1.04688 47.3094C1.04688 47.5674 1.25798 47.7765 1.51838 47.7765Z" fill="#FFE6C3"/>
<path id="Vector_22" d="M2.7469 46.8423C2.48691 46.8423 2.27539 47.0494 2.27539 47.3094C2.27539 47.5694 2.48691 47.7765 2.7469 47.7765C3.00689 47.7765 3.2184 47.5694 3.2184 47.3094C3.2184 47.0494 3.00689 46.8423 2.7469 46.8423Z" fill="#FFE6C3"/>
<path id="Vector_23" d="M29.4704 47.3094C29.4704 47.0538 29.2588 46.8423 28.9988 46.8423C28.7389 46.8423 28.5273 47.0494 28.5273 47.3094C28.5273 47.5694 28.7389 47.7765 28.9988 47.7765C29.2588 47.7765 29.4704 47.565 29.4704 47.3094Z" fill="#FFE6C3"/>
<path id="Vector_24" d="M30.6989 47.3094C30.6989 47.0538 30.4874 46.8423 30.2274 46.8423C29.9674 46.8423 29.7559 47.0494 29.7559 47.3094C29.7559 47.5694 29.9674 47.7765 30.2274 47.7765C30.4874 47.7765 30.6989 47.565 30.6989 47.3094Z" fill="#FFE6C3"/>
<path id="Vector_25" d="M33.161 47.7765C33.4214 47.7765 33.6325 47.5674 33.6325 47.3094C33.6325 47.0514 33.4214 46.8423 33.161 46.8423C32.9006 46.8423 32.6895 47.0514 32.6895 47.3094C32.6895 47.5674 32.9006 47.7765 33.161 47.7765Z" fill="#FFE6C3"/>
<path id="Vector_26" d="M9.86712 43.0738H10.2108V42.7036H9.86712C9.63797 42.7036 9.4529 42.8887 9.4529 43.1134V43.2985H9.17969V43.6687H10.2108V43.2985H9.83187V43.1134C9.82746 43.0914 9.84509 43.0738 9.86712 43.0738Z" fill="#FFE6C3"/>
<path id="Vector_27" d="M17.6202 34.0273V38.099H15.9545L16.7477 36.7022C16.8447 36.4774 16.8182 36.2218 16.6816 36.0191C16.5627 35.8429 16.3732 35.7327 16.1661 35.7063V35.693H13.8482V35.7063C13.6411 35.7327 13.4516 35.8429 13.3326 36.0191C13.196 36.2218 13.1696 36.4774 13.2709 36.7154L14.0817 38.099H8.50297V34.045H6.70508V34.8954H7.63928V38.9495H18.4839V34.0318L17.6202 34.0273ZM15.0203 38.077L14.1434 36.5479H15.8752L15.0203 38.077Z" fill="#FFE6C3"/>
<path id="Vector_28" d="M5.93224 35.6968H3.86114V38.0984H2.9005V35.3311H2.0368V36.067H0.87346C0.397547 36.067 0.00976562 36.4459 0.00976562 36.913V38.9489H6.84V36.5869C6.84 36.0978 6.4346 35.6968 5.93224 35.6968ZM2.0368 38.0984H0.877867V36.9174H2.04121L2.0368 38.0984ZM5.97631 38.0984H4.72924V36.5473H5.93665C5.95868 36.5473 5.98072 36.5649 5.98072 36.5913L5.97631 38.0984Z" fill="#FFE6C3"/>
<path id="Vector_29" d="M27.3837 35.7012V38.0984H25.4845V35.3311H24.6208V36.067H23.4574C22.9815 36.067 22.5938 36.4459 22.5938 36.913V38.9489H28.2518V35.7012H27.3837ZM24.6164 38.0984H23.4574V36.9174H24.6208V38.0984H24.6164Z" fill="#FFE6C3"/>
<path id="Vector_30" d="M42.2052 34.0273V38.099H41.3679V36.5656C41.3679 36.0852 40.9714 35.6974 40.4866 35.6974H38.4464V38.099H37.4417V36.5656C37.4417 36.0852 37.0451 35.6974 36.5603 35.6974H34.9519V36.5479L36.578 36.5656V38.099H34.498V38.9495H43.0777V34.0273H42.2052ZM40.5043 38.099H39.3101V36.5567L40.5043 36.57V38.099Z" fill="#FFE6C3"/>
<path id="Vector_31" d="M34.955 45.4627V44.7576C34.955 43.819 34.1795 43.0567 33.2232 43.0567H32.1172V43.9071H33.2232C33.6992 43.9071 34.0913 44.2905 34.0913 44.7576V45.4627H30.9803V43.0611H30.1166V45.4583H28.5919V42.6909H27.7282V43.4268H26.5649C26.089 43.4268 25.7012 43.8058 25.7012 44.2729V46.3043H28.1424V46.3087H35.9774V45.4583L34.955 45.4627ZM27.7238 44.8193V45.4583H26.5649V44.8193V44.2773H27.7282L27.7238 44.8193Z" fill="#FFE6C3"/>
<path id="Vector_32" d="M44.7081 41.3911V45.4628H43.7386V41.3911H42.8749V45.4628H41.4736V43.1229H40.6099V45.4628H39.3893V44.0483C39.3893 43.5503 38.9751 43.1449 38.4683 43.1449H36.4941V46.3177H38.5168C38.4815 46.7804 38.0893 46.9478 37.609 46.9478H36.5602V47.7983H37.609C38.5652 47.7983 39.3452 47.2519 39.3805 46.3177H45.5717V41.3911H44.7081ZM38.5212 44.7093V45.4628H37.3578V43.991H38.4683C38.4991 43.991 38.5212 44.0175 38.5212 44.0439V44.7093Z" fill="#FFE6C3"/>
</g>
</g>
</g>
</svg>
