<svg width="30" height="30" viewBox="0 0 30 30" fill="none" xmlns="http://www.w3.org/2000/svg">
<g id="Frame 435">
<path id="Vector" d="M28.2997 11.1335H25.4495V8.28332C25.4495 7.75885 25.0246 7.33291 24.4991 7.33291H10.2491V3.53331C10.2491 1.96195 8.97024 0.683105 7.39888 0.683105C5.82752 0.683105 4.54867 1.96195 4.54867 3.53331V7.33291H1.69846C1.17399 7.33291 0.748047 7.75782 0.748047 8.28332V24.4331C0.748047 24.9576 1.17296 25.3835 1.69846 25.3835H4.54867V28.2338C4.54867 28.7582 4.97358 29.1842 5.49908 29.1842H28.2997C28.8242 29.1842 29.2501 28.7593 29.2501 28.2338V12.0839C29.2501 11.5595 28.8252 11.1335 28.2997 11.1335ZM6.44949 3.53331C6.44949 3.00987 6.87543 2.5829 7.3999 2.5829C7.92437 2.5829 8.35031 3.00884 8.35031 3.53331V7.33291H6.45052V3.53331H6.44949ZM2.6499 9.23373H4.54969V12.0839C4.54969 12.6084 4.97461 13.0344 5.50011 13.0344H8.35031V11.1346H6.45052V9.23476H23.5507V23.4848H2.65092V9.23476L2.6499 9.23373ZM27.3503 27.2833H6.45052V25.3835H24.5001C25.0246 25.3835 25.4505 24.9586 25.4505 24.4331V13.0333H27.3503V27.2833Z" fill="#32645B"/>
<path id="Vector_2" d="M20.7043 19.6841H5.50391V21.5839H20.7043V19.6841Z" fill="#32645B"/>
<path id="Vector_3" d="M20.7018 15.8838H17.8516V17.7836H20.7018V15.8838Z" fill="#32645B"/>
<path id="Vector_4" d="M15.9543 15.8838H5.50391V17.7836H15.9543V15.8838Z" fill="#32645B"/>
</g>
</svg>
