<svg width="17" height="21" viewBox="0 0 17 21" fill="none" xmlns="http://www.w3.org/2000/svg">
<g id="Frame" clip-path="url(#clip0_288_1774)">
<path id="Vector" d="M15.3765 6.01449H14.749V2.72038C14.749 1.30861 13.4941 0.0537109 12.0823 0.0537109H0.631357C0.317632 0.0537109 0.00390625 0.367436 0.00390625 0.681162V19.5047C0.00390625 19.8184 0.317632 20.1321 0.631357 20.1321H12.0823C13.4941 20.1321 14.749 18.8772 14.749 17.4655V10.7204H15.3765C15.6902 10.7204 16.0039 10.4067 16.0039 10.0929V6.79881C16.0039 6.32822 15.847 6.01449 15.3765 6.01449ZM1.41567 1.46548H3.45489V18.8772H1.41567V1.46548ZM13.3372 17.4655C13.3372 18.2498 12.7098 18.8772 11.9255 18.8772H4.70979V1.46548H12.0823C12.8667 1.46548 13.4941 2.09293 13.4941 2.87724V6.17136H12.0823C10.9843 6.01449 10.0431 6.95567 10.0431 8.05371V8.68116C10.0431 9.7792 10.9843 10.7204 12.0823 10.7204H13.4941V17.4655H13.3372ZM14.749 9.46548H12.0823C11.7686 9.46548 11.4549 9.15175 11.4549 8.83802V8.05371C11.4549 7.73998 11.7686 7.42626 12.0823 7.42626H14.749V9.46548Z" fill="#88A7A2"/>
<path id="Vector_2" d="M11.7689 16.0537H6.43555V17.4655H11.7689V16.0537Z" fill="#88A7A2"/>
<path id="Vector_3" d="M11.7689 13.3872H6.43555V14.799H11.7689V13.3872Z" fill="#88A7A2"/>
<path id="Vector_4" d="M7.69033 2.72021H5.96484V4.13198H7.69033V2.72021Z" fill="#88A7A2"/>
<path id="Vector_5" d="M10.5146 2.72021H8.78906V4.13198H10.5146V2.72021Z" fill="#88A7A2"/>
</g>
<defs>
<clipPath id="clip0_288_1774">
<rect width="16" height="20.0784" fill="white" transform="translate(0.00390625 0.0537109)"/>
</clipPath>
</defs>
</svg>
